<?xml version="1.0" encoding="UTF-8"?>
<!-- Created with Inkscape (http://www.inkscape.org/) -->
<svg width="32" height="32" version="1.1" viewBox="0 0 8.4667 8.4667" xmlns="http://www.w3.org/2000/svg">
 <path d="m1.9483-1.6667e-6c-1.0794 0-1.9483 0.869-1.9483 1.9484v4.57c0 1.0794 0.86891 1.9483 1.9483 1.9483h4.57c1.0794 0 1.9484-0.86892 1.9484-1.9483v-4.57c0-1.0794-0.869-1.9484-1.9484-1.9484zm0.42231 0.98899a0.30441 0.30441 0 0 1 0.0617 0.0295l4.6698 3.1625a0.063236 0.063236 0 0 1 0 0.10475l-4.6698 3.1625a0.30441 0.30441 0 0 1-0.0617 0.0294c0.0689-0.10086 0.50318-0.74541 0.87575-1.497l3.3255-1.5631 0.29971-0.0981 0.13012-0.0425a0.045823 0.045823 0 0 0 0-0.0873l-0.42913-0.14027-3.3262-1.5634c-0.37257-0.75155-0.80688-1.3962-0.87575-1.497zm-0.30881 1.4807 3.841 1.3606h-2.4961c-0.0964 0-0.17445 0.075-0.17974 0.17011h-1e-3v0.1251c-0.12027-0.6156-1.1642-1.6559-1.1642-1.6559zm1.1642 1.8716-5.3e-4 0.0724v0.0717h3e-3c0.0139 0.0859 0.0877 0.15129 0.17763 0.15129h2.4967l-3.8409 1.3604s1.0439-1.0403 1.1642-1.6559z" fill="currentColor"/>
</svg>
