<?xml version="1.0" encoding="UTF-8"?>
<!-- Created with Inkscape (http://www.inkscape.org/) -->
<svg width="32" height="32" version="1.1" viewBox="0 0 8.4667 8.4667" xmlns="http://www.w3.org/2000/svg">
 <path d="m1.9483-4.665e-5c-1.0794 0-1.9483 0.86901-1.9483 1.9484v4.57c0 1.0794 0.86892 1.9483 1.9483 1.9483h4.57c1.0794 0 1.9483-0.86893 1.9483-1.9483v-4.57c0-1.0794-0.86893-1.9484-1.9483-1.9484zm0.26129 2.2298h1.7e-4l1.6829 1.0618 0.12015-0.45083 0.22042-0.12023 0.31713-0.22166-0.0967 0.34189 0.12024 0.45083 1.6829-1.0619h9e-5l1.7844 0.45714-1.2387 0.84067-1.2053 0.0839 0.51227-1.073-0.78432 1.1338-0.93877 0.87856 0.3677 1.4557-0.21036-0.19042-0.15358-0.40638 0.0677 0.52259-0.22471 0.30461-0.22472-0.30461 0.0677-0.52259-0.15349 0.40638-0.21045 0.19042 0.3677-1.4557-0.93868-0.87856-0.78423-1.1336 0.51218 1.0727-1.2053-0.0839-1.2387-0.84067z" fill="currentColor"/>
</svg>
