<?xml version="1.0" encoding="UTF-8"?>
<!-- Created with Inkscape (http://www.inkscape.org/) -->
<svg version="1.1" viewBox="0 0 4.2333 4.2333" xmlns="http://www.w3.org/2000/svg">
 <path transform="scale(.26458)" d="m8.4531 0.050781c-0.5091 5.8916e-4 -0.95891 0.26222-1.4102 0.5918-0.45125 0.32958-0.86721 0.74279-1.1074 1.2246-0.19783 0.39681-0.27076 0.88413-0.33203 1.3223-0.011537 0.0825-0.022077 0.16088-0.03125 0.23633-0.35576-0.060999-0.99955-0.17294-1.3789-0.24414-0.22276-0.04181-0.53201-0.18359-0.95312-0.18359-0.17891 0-0.54298-0.060599-0.88477 0.22852-0.3599 0.30444-0.35846 0.69158-0.39258 0.87695-0.070197 0.38145-0.050642 0.75824 0 1.1074 0.044699 0.3082 0.12926 0.61919 0.27344 0.91602 0.05527 0.11378 0.11552 0.19511 0.18164 0.27344-0.04881 0.0042019-0.095128 0.0086537-0.13672 0.013672-0.34393 0.041496-0.84369 0.043288-1.293 0.38477-0.38435 0.29212-0.5229 0.69816-0.62695 0.99609-0.12532 0.35883-0.12625 0.70063-0.14062 0.97461-0.013888 0.26471-0.088982 0.64213 0.052734 1.0703 0.1667 0.50367 0.49564 0.9167 0.86328 1.2402 0.27033 0.23789 0.58983 0.39235 0.9082 0.48047 0.39581 0.10955 0.77384 0.096295 1.1074 0.074219 0.12408-0.008206 0.26089-0.025938 0.39844-0.048828-0.16755 0.50654-0.20994 1.035-0.19922 1.5312 0.0107 0.49599 0.045987 1.0779 0.34766 1.6094 0.22122 0.38977 0.56032 0.66315 0.90625 0.84961 0.37901 0.20429 0.82428 0.32825 1.2852 0.31055 0.32881-0.012624 0.61149-0.12291 0.86328-0.22266 0.25179-0.099742 0.45117-0.19922 0.45117-0.19922l0.021484-0.007813 0.015625-0.013672s0.17195-0.10403 0.37695-0.24414c0.12812-0.08757 0.26965-0.18642 0.40234-0.29688 0.0081073 0.020246 0.017397 0.04084 0.025391 0.060547 0.049667 0.12245 0.084751 0.41959 0.39062 0.67188 0.3106 0.25618 0.66585 0.29935 0.94531 0.31055 0.36755 0.014741 0.81571-0.014681 1.2109-0.28125 0.63887-0.43086 1.0794-1.0981 1.3125-1.8008 0.13107 0.039365 0.26615 0.067642 0.40039 0.082031 0.45573 0.048851 0.90983-0.040481 1.3066-0.20703 0.46281-0.19425 0.82941-0.50634 1.1367-0.82812 0.17844-0.18685 0.33517-0.41344 0.44141-0.66992 0.14082-0.33999 0.19476-0.69122 0.20703-1.0273 0.012245-0.33541 0.008262-0.72486-0.14648-1.1152-0.17993-0.45394-0.46511-0.88795-0.86328-1.2148 0.059992-0.034076 0.11798-0.072826 0.17578-0.11328 0.23663-0.16562 0.43134-0.38781 0.59766-0.58203 0.16631-0.19422 0.28906-0.35547 0.28906-0.35547l0.042969-0.058594 0.023437-0.066406s0.079983-0.22395 0.1543-0.50195c0.074314-0.278 0.1581-0.59705 0.13281-0.9375-0.027644-0.3718-0.16179-0.72314-0.37695-1.0195-0.21237-0.29254-0.51298-0.59012-0.9375-0.72266-0.33095-0.10332-0.63808-0.071238-0.90039-0.013672 0.012985-0.027327 0.025191-0.054571 0.037109-0.082031 0.2111-0.48639 0.48307-1.1164 0.31055-1.8086-0.11785-0.47283-0.43563-0.85079-0.8418-1.0703-0.39966-0.21601-0.85359-0.24695-1.2695-0.12695-0.57796 0.16674-0.99006 0.58225-1.293 0.97461-0.16031 0.20765-0.27047 0.44994-0.36133 0.68164-0.002222-0.055726-0.004852-0.11316-0.007813-0.17188-0.022257-0.44144-0.048706-0.92544-0.16797-1.3066-0.094214-0.30114-0.23468-0.64391-0.4668-0.95117-0.23211-0.30727-0.59993-0.60016-1.0762-0.59961zm0 0.93164c0.10387-1.2023e-4 0.20177 0.056082 0.33203 0.22852 0.13026 0.17243 0.24353 0.43893 0.31641 0.67188 0.04783 0.15289 0.10402 0.66206 0.125 1.0781 0.0055569 0.11022 0.010548 0.21471 0.013672 0.31055-0.29463-0.055075-0.59795-0.085938-0.9082-0.085938-0.64869 0-1.2676 0.1268-1.8359 0.35547 0.0084834-0.069894 0.018582-0.14214 0.029297-0.21875 0.056327-0.40279 0.16907-0.89043 0.24414-1.041 0.12821-0.25716 0.46514-0.62303 0.82617-0.88672 0.36103-0.26369 0.78641-0.41203 0.85742-0.41211zm3.8125 1.3164c0.1406-0.0038078 0.2888 0.025203 0.38672 0.078125 0.16974 0.091739 0.3443 0.30247 0.38476 0.46484 0.075478 0.30284-0.068441 0.75661-0.26562 1.2109-0.084318 0.19428-0.20588 0.37442-0.33984 0.48047-0.005405 0.0042709-0.17379 0.088967-0.31055 0.13867-0.081763 0.029718-0.1512 0.052547-0.19727 0.066406-0.30937-0.32751-0.66283-0.61399-1.0508-0.84766 0.024264-0.074674 0.054913-0.16224 0.089844-0.25781 0.094764-0.25928 0.23814-0.56694 0.30859-0.6582 0.23801-0.30829 0.53998-0.56982 0.8125-0.64844 0.055035-0.015878 0.11773-0.025613 0.18164-0.027344zm-9.0996 1.6367c0.023397-8.858e-4 0.047377 0 0.074219 0 0.16936 0 0.42563 0.094996 0.7832 0.16211 0.34389 0.064545 0.80818 0.14596 1.1777 0.21094-0.6563 0.53918-1.172 1.2436-1.4824 2.0488-0.01717 1.012e-4 -0.015147-1.552e-4 -0.035156 0-0.0625-0.059669-0.13617-0.13101-0.21484-0.20898-0.096022-0.095173-0.19554-0.1932-0.27148-0.2793-0.056958-0.064571-0.10569-0.13115-0.11914-0.14844-0.093287-0.19205-0.1581-0.41291-0.19141-0.64258-0.040772-0.28113-0.045074-0.55975 0-0.80469 0.031873-0.1732 0.069326-0.28379 0.078125-0.32422 0.02776 4.075e-4 0.097836-0.0097598 0.20117-0.013672zm5.0664 0.31445c0.033341-8.406e-4 0.066057 0 0.099609 0 2.1474 0 3.8789 1.7316 3.8789 3.8789 0 2.1474-1.7316 3.8711-3.8789 3.8711-2.1474 0-3.8711-1.7237-3.8711-3.8711 0-2.1138 1.671-3.826 3.7715-3.8789zm5.7988 1.1504c0.075754-0.0024839 0.13846 0.0028776 0.18555 0.017578 0.13942 0.043525 0.31647 0.19141 0.45117 0.37695 0.11129 0.15331 0.19348 0.35668 0.20703 0.53906 0.006123 0.08233-0.039702 0.38822-0.10352 0.62695-0.052845 0.19769-0.093938 0.30497-0.11133 0.35547-0.028611 0.037304-0.090992 0.12327-0.21289 0.26562-0.1462 0.17074-0.34525 0.36629-0.42188 0.41992-0.15891 0.11122-0.36028 0.20087-0.58203 0.25195-0.007929 0.0018271-0.08816 0.0078689-0.16992 0.011719 0.001248-0.04552 0.001953-0.090906 0.001953-0.13672 0-0.80223-0.19381-1.5615-0.53516-2.2324 0.064926-0.03796 0.15643-0.091461 0.28125-0.16016 0.20081-0.11052 0.4567-0.23328 0.55469-0.25977 0.16995-0.045945 0.32882-0.072032 0.45508-0.076172zm-4.9746 1.6113a0.23376 0.23376 0 0 0-0.2207 0.21484 0.23376 0.23376 0 0 0 0.20703 0.25195s0.090599 0.0098287 0.22266 0.023438c0.0039198 0.10647 0.020909 0.30233 0.087891 0.50781 0.049849 0.15292 0.13015 0.3197 0.26562 0.45703 0.13548 0.13733 0.33142 0.2423 0.56836 0.25781 0.25203 0.016479 0.4801-0.06701 0.63477-0.19922 0.15466-0.13221 0.24852-0.30538 0.31055-0.46484 0.08394-0.2158 0.11189-0.42514 0.12109-0.53906 0.17578-0.015198 0.29883-0.029297 0.29883-0.029297a0.23376 0.23376 0 0 0 0.21484-0.25781 0.23376 0.23376 0 0 0-0.25977-0.20703s-0.83171 0.075655-1.2109 0.074219c-0.37957-0.0014449-1.2031-0.08789-1.2031-0.087891a0.23376 0.23376 0 0 0-0.037109-0.0019531zm-2.0957 0.16797a0.23376 0.23376 0 0 0-0.037109 0.0039063l-2.1914 0.35352a0.23376 0.23376 0 0 0-0.19922 0.27344 0.23376 0.23376 0 0 0 0.27148 0.19141l0.072266-0.011719a0.23376 0.23376 0 0 0 0.0019531 0.09375s0.042044 0.21503 0.17773 0.42773c0.13569 0.2127 0.4025 0.45344 0.7832 0.43555 0.26722-0.012548 0.59663-0.12784 0.82617-0.40625 0.14927-0.18106 0.18581-0.40099 0.21484-0.58398 0.02055-0.12956 0.029138-0.2402 0.033203-0.29492l0.083984-0.013672a0.23376 0.23376 0 0 0 0.19141-0.27344 0.23376 0.23376 0 0 0-0.22852-0.19531zm-3.5 0.12109c-0.045711 0.26934-0.070312 0.54607-0.070312 0.82812 0 0.8682 0.22552 1.6844 0.62109 2.3945-0.25618 0.058344-0.71696 0.16053-0.91797 0.17383-0.3031 0.020069-0.58555 0.023552-0.80469-0.03711-0.20576-0.056937-0.40113-0.15986-0.53906-0.28125-0.26739-0.23531-0.48489-0.53458-0.58398-0.83398-0.046373-0.14011-0.025289-0.39739-0.0078125-0.73047 0.015224-0.29025 0.028874-0.53441 0.089844-0.70898 0.095668-0.27392 0.20484-0.48614 0.30273-0.56055 0.13965-0.10614 0.45719-0.15211 0.84766-0.19922 0.18688-0.022545 0.69436-0.03722 1.0625-0.044922zm6.2812 0.24414c0.068476 0.0053883 0.13733 0.011392 0.20508 0.015625 0.0045275 0.049338 0.013655 0.1053 0.033203 0.13867 0.048484 0.082761 0.1287 0.1788 0.22461 0.17969 0.082723 7.684e-4 0.15932-0.076878 0.19727-0.15039 0.019531-0.037836 0.025154-0.1004 0.023437-0.15625 0.10956-0.0026654 0.23119-0.0080457 0.35352-0.015625-0.012522 0.091544-0.035843 0.21526-0.082031 0.33398-0.043779 0.11255-0.11288 0.21132-0.18555 0.27344s-0.14454 0.099176-0.28711 0.089844c-0.12964-0.008504-0.20799-0.044989-0.27344-0.11133-0.065437-0.066339-0.11367-0.1668-0.14844-0.27344-0.038568-0.11831-0.053747-0.23986-0.060547-0.32422zm-3.3008 0.19336c-0.0044392 0.042098-0.011014 0.092821-0.019531 0.14648-0.024038 0.15146-0.084626 0.3235-0.10938 0.35352-0.095698 0.11607-0.41281 0.24023-0.49609 0.24414-0.18398 0.0086552-0.27554-0.088168-0.36133-0.22266-0.085792-0.13448-0.125-0.2793-0.125-0.2793a0.23376 0.23376 0 0 0-0.021484-0.060547l0.28125-0.044922c0.012241 0.084114 0.031373 0.1787 0.060547 0.23242 0.046065 0.084825 0.10899 0.16656 0.20508 0.17578 0.12611 0.012121 0.22792-0.067066 0.29297-0.17578 0.043966-0.073479 0.060436-0.21708 0.066406-0.33203l0.22656-0.037109zm6.6934 1.5566c0.2561 0.087262 0.53678 0.20997 0.61719 0.27148 0.26795 0.205 0.4932 0.52873 0.62891 0.87109 0.074616 0.18825 0.098364 0.45169 0.087891 0.73828-0.00926 0.25395-0.05549 0.50345-0.14062 0.70898-0.053545 0.12927-0.14008 0.26185-0.25 0.37695-0.25523 0.26726-0.5399 0.49231-0.82812 0.61328-0.27025 0.11343-0.57821 0.16693-0.8418 0.13867-0.12662-0.013566-0.25788-0.048775-0.375-0.10156-0.010879-0.21008-0.039384-0.41624-0.066406-0.61328-0.041527-0.30281-0.093572-0.56696-0.12109-0.69922 0.62012-0.62762 1.0739-1.4206 1.2891-2.3047zm-3.2871 0.86914-3.2559 0.074219a0.23376 0.23376 0 0 0-0.22852 0.24414 0.23376 0.23376 0 0 0 0.19141 0.21484l-0.24219 0.035156a0.23376 0.23376 0 0 0-0.19336 0.27344 0.23376 0.23376 0 0 0 0.26562 0.19336l3.4922-0.56836h0.021484l0.03125-0.007812a0.23378 0.23378 0 0 0-0.037109-0.45898h-0.037109-0.0078126zm-5.1758 1.2812c0.8017 0.88375 1.9187 1.4774 3.1699 1.6016-0.0031183 0.030395-0.0067484 0.061761-0.0097657 0.09375-0.018375 0.19477-0.036639 0.41089-0.039062 0.62305-0.069499 0.094319-0.15697 0.20483-0.24219 0.29883-0.063935 0.070523-0.27586 0.24532-0.45703 0.36914-0.16429 0.11229-0.27815 0.17647-0.30273 0.19141 0 0-0.16332 0.085294-0.37695 0.16992-0.21364 0.084628-0.49294 0.15951-0.56055 0.16211-0.25479 0.009789-0.55326-0.069562-0.80469-0.20508-0.23121-0.12462-0.43666-0.30785-0.53906-0.48828-0.16542-0.29146-0.21881-0.71593-0.22852-1.166-0.010696-0.49516 0.054716-0.9867 0.22852-1.3945 0.010334-0.024221 0.080854-0.1445 0.16211-0.25586zm5.9395 1.0664c0.050958 0.13081 0.11098 0.2682 0.17383 0.38476 0.066084 0.12256 0.1451 0.29362 0.29102 0.46094-0.002886 0.022064-0.005923 0.040666-0.009766 0.054687-0.15853 0.57838-0.53431 1.1638-0.99805 1.4766-0.12892 0.086952-0.38428 0.13754-0.64844 0.12695-0.18024-0.007213-0.33015-0.057058-0.38086-0.095703 0.0012705-0.012278-0.050253-0.11668-0.12891-0.31055-0.086688-0.2137-0.15143-0.40389-0.16992-0.56836-0.018065-0.16072-0.0057848-0.52331 0.021484-0.8125 0.0059329-0.06292 0.013544-0.12236 0.019531-0.17774 0.6548-0.059344 1.2733-0.2482 1.8301-0.53906z" fill="currentColor" stroke-linecap="round" stroke-linejoin="round" stroke-width="3.534" style="-inkscape-stroke:none"/>
</svg>
